<?xml version="1.0" encoding="UTF-8"?>
<svg xmlns="http://www.w3.org/2000/svg" width="960" height="540" viewBox="0 0 960 540" role="img" aria-labelledby="title desc">
  <title id="title">ESP32 и датчик влажности почвы в Home Assistant: типовая схема</title>
  <desc id="desc">ESP32, MQTT и Home Assistant</desc>
  <rect width="960" height="540" rx="28" fill="#241f3b"/>
  <rect x="40" y="40" width="880" height="460" rx="24" fill="rgba(255,255,255,0.05)" stroke="rgba(255,255,255,0.16)"/>
  <text x="72" y="94" fill="#eef0ff" font-family="Arial, sans-serif" font-size="28" font-weight="700">ESP32 и датчик влажности почвы в Home Assistant: типовая схема</text>
  <text x="72" y="130" fill="#eef0ff" opacity="0.74" font-family="Arial, sans-serif" font-size="18">ESP32, MQTT и Home Assistant</text>
  <g font-family="Arial, sans-serif" font-size="19" font-weight="700">
    <rect x="76" y="210" width="170" height="92" rx="16" fill="rgba(255,255,255,0.09)" stroke="#b9a6ff"/>
    <text x="161" y="262" fill="#eef0ff" text-anchor="middle">Home Assistant</text>
    <path d="M252 256h72" stroke="#b9a6ff" stroke-width="5" stroke-linecap="round"/>
    <path d="M324 256l-16-10v20z" fill="#b9a6ff"/>
    <rect x="340" y="210" width="170" height="92" rx="16" fill="rgba(255,255,255,0.09)" stroke="#b9a6ff"/>
    <text x="425" y="250" fill="#eef0ff" text-anchor="middle">ESP32 автополив Home Assistant</text>
    <text x="425" y="276" fill="#eef0ff" opacity="0.82" text-anchor="middle" font-size="15">данные</text>
    <path d="M516 256h72" stroke="#b9a6ff" stroke-width="5" stroke-linecap="round"/>
    <path d="M588 256l-16-10v20z" fill="#b9a6ff"/>
    <rect x="604" y="210" width="170" height="92" rx="16" fill="rgba(255,255,255,0.09)" stroke="#b9a6ff"/>
    <text x="689" y="250" fill="#eef0ff" text-anchor="middle">ESP32, MQTT и Home Assistant</text>
    <text x="689" y="276" fill="#eef0ff" opacity="0.82" text-anchor="middle" font-size="15">правило</text>
    <path d="M689 308v58" stroke="#b9a6ff" stroke-width="5" stroke-linecap="round"/>
    <path d="M689 366l-10-16h20z" fill="#b9a6ff"/>
    <rect x="520" y="382" width="338" height="64" rx="16" fill="#b9a6ff" opacity="0.92"/>
    <text x="689" y="422" fill="#092016" text-anchor="middle">проверка и действие</text>
  </g>
  <text x="72" y="462" fill="#eef0ff" opacity="0.68" font-family="Arial, sans-serif" font-size="16">GrowerHub: наблюдение, ограничения, журнал и аккуратное действие</text>
</svg>
