<?xml version="1.0" encoding="UTF-8"?>
<svg xmlns="http://www.w3.org/2000/svg" width="960" height="540" viewBox="0 0 960 540" role="img" aria-labelledby="title desc">
  <title id="title">Фото-дневник роста: как сравнивать растения по неделям</title>
  <desc id="desc">сетка еженедельных фото</desc>
  <rect width="960" height="540" rx="28" fill="#1e2c25"/>
  <rect x="40" y="40" width="880" height="460" rx="24" fill="rgba(255,255,255,0.05)" stroke="rgba(255,255,255,0.16)"/>
  <text x="72" y="94" fill="#f4ffe8" font-family="Arial, sans-serif" font-size="28" font-weight="700">Фото-дневник роста: как сравнивать растения по неделям</text>
  <text x="72" y="130" fill="#f4ffe8" opacity="0.74" font-family="Arial, sans-serif" font-size="18">сетка еженедельных фото</text>
  <g font-family="Arial, sans-serif" font-size="19" font-weight="700">
    <rect x="76" y="210" width="170" height="92" rx="16" fill="rgba(255,255,255,0.09)" stroke="#a8d46f"/>
    <text x="161" y="262" fill="#f4ffe8" text-anchor="middle">журнал ухода</text>
    <path d="M252 256h72" stroke="#a8d46f" stroke-width="5" stroke-linecap="round"/>
    <path d="M324 256l-16-10v20z" fill="#a8d46f"/>
    <rect x="340" y="210" width="170" height="92" rx="16" fill="rgba(255,255,255,0.09)" stroke="#a8d46f"/>
    <text x="425" y="250" fill="#f4ffe8" text-anchor="middle">советы по поливу растений</text>
    <text x="425" y="276" fill="#f4ffe8" opacity="0.82" text-anchor="middle" font-size="15">данные</text>
    <path d="M516 256h72" stroke="#a8d46f" stroke-width="5" stroke-linecap="round"/>
    <path d="M588 256l-16-10v20z" fill="#a8d46f"/>
    <rect x="604" y="210" width="170" height="92" rx="16" fill="rgba(255,255,255,0.09)" stroke="#a8d46f"/>
    <text x="689" y="250" fill="#f4ffe8" text-anchor="middle">сетка еженедельных фото</text>
    <text x="689" y="276" fill="#f4ffe8" opacity="0.82" text-anchor="middle" font-size="15">правило</text>
    <path d="M689 308v58" stroke="#a8d46f" stroke-width="5" stroke-linecap="round"/>
    <path d="M689 366l-10-16h20z" fill="#a8d46f"/>
    <rect x="520" y="382" width="338" height="64" rx="16" fill="#a8d46f" opacity="0.92"/>
    <text x="689" y="422" fill="#092016" text-anchor="middle">проверка и действие</text>
  </g>
  <text x="72" y="462" fill="#f4ffe8" opacity="0.68" font-family="Arial, sans-serif" font-size="16">GrowerHub: наблюдение, ограничения, журнал и аккуратное действие</text>
</svg>
