<?xml version="1.0" encoding="UTF-8"?>
<svg width="24" height="24" viewBox="0 0 24 24" fill="none" xmlns="http://www.w3.org/2000/svg">
<path d="M5 5.5C5 4.67157 5.67157 4 6.5 4H13.5C14.3284 4 15 4.67157 15 5.5V7H17C18.6569 7 20 8.34315 20 10V16C20 17.1046 19.1046 18 18 18H4C2.89543 18 2 17.1046 2 16V9C2 7.89543 2.89543 7 4 7H5V5.5Z" stroke="currentColor" stroke-width="1.5"/>
<path d="M7 18V20.5C7 20.7761 7.22386 21 7.5 21H14.5C14.7761 21 15 20.7761 15 20.5V18" stroke="currentColor" stroke-width="1.5"/>
<path d="M9.5 11H13.5" stroke="currentColor" stroke-width="1.5" stroke-linecap="round"/>
<path d="M9.5 13H12" stroke="currentColor" stroke-width="1.5" stroke-linecap="round"/>
</svg>
