<?xml version="1.0" encoding="UTF-8"?>
<svg width="24" height="24" viewBox="0 0 24 24" fill="none" xmlns="http://www.w3.org/2000/svg">
<path d="M12 3C11.4477 3 11 3.44772 11 4V13.1707C9.27477 13.5829 8 15.1362 8 17C8 19.2091 9.79086 21 12 21C14.2091 21 16 19.2091 16 17C16 15.1362 14.7252 13.5829 13 13.1707V4C13 3.44772 12.5523 3 12 3ZM10.5 17C10.5 15.8954 11.3954 15 12.5 15C13.6046 15 14.5 15.8954 14.5 17C14.5 18.1046 13.6046 19 12.5 19C11.3954 19 10.5 18.1046 10.5 17Z" fill="currentColor"/>
</svg>
