<?xml version="1.0" encoding="UTF-8"?>
<svg width="24" height="24" viewBox="0 0 24 24" fill="none" xmlns="http://www.w3.org/2000/svg">
<path d="M12 2C7.58172 2 4 5.58172 4 10H6C6 6.68629 8.68629 4 12 4C15.3137 4 18 6.68629 18 10C18 11.9327 16.9485 13.6038 15.3677 14.5H14V16.5H15.5C17.9853 15.3019 20 12.8431 20 10C20 5.58172 16.4183 2 12 2Z" fill="currentColor"/>
<path d="M11 17H13V20H11V17Z" fill="currentColor"/>
<path d="M12 22C12.8284 22 13.5 21.3284 13.5 20.5C13.5 19.6716 12.8284 19 12 19C11.1716 19 10.5 19.6716 10.5 20.5C10.5 21.3284 11.1716 22 12 22Z" fill="currentColor"/>
</svg>
