<?xml version="1.0" encoding="UTF-8"?>
<svg width="24" height="24" viewBox="0 0 24 24" fill="none" xmlns="http://www.w3.org/2000/svg">
<path d="M12 3C9 6 7.5 8.5 7.5 10.5C7.5 13.5376 9.73858 16 12.5 16C15.2614 16 17.5 13.5376 17.5 10.5C17.5 8.5 16 6 13 3C12.6 2.6 12.4 2.6 12 3Z" fill="currentColor" fill-opacity="0.9"/>
<path d="M5 17C5 17 6.5 19 9.5 19C12.5 19 14 17 14 17" stroke="currentColor" stroke-width="1.5" stroke-linecap="round"/>
<path d="M5 19C5 19 6.5 21 9.5 21C12.5 21 14 19 14 19" stroke="currentColor" stroke-width="1.5" stroke-linecap="round"/>
</svg>
