<?xml version="1.0" encoding="UTF-8"?>
<svg width="24" height="24" viewBox="0 0 24 24" fill="none" xmlns="http://www.w3.org/2000/svg">
<path d="M7 5C9 7.5 10 9.5 10 11.5C10 14.5376 7.76142 17 5 17C2.23858 17 0 14.5376 0 11.5C0 9.5 1 7.5 3 5C4 3.66667 5 3 6 3C7 3 7.66667 3.66667 7 5Z" transform="translate(7 2)" fill="currentColor" fill-opacity="0.9"/>
<path d="M5 17C5 17 6.5 19 9.5 19C12.5 19 14 17 14 17" transform="translate(3 3)" stroke="currentColor" stroke-width="1.5" stroke-linecap="round"/>
<path d="M5 19C5 19 6.5 21 9.5 21C12.5 21 14 19 14 19" transform="translate(3 1)" stroke="currentColor" stroke-width="1.5" stroke-linecap="round"/>
</svg>
