<?xml version="1.0" encoding="UTF-8"?>
<!DOCTYPE svg PUBLIC "-//W3C//DTD SVG 1.1//EN" "http://www.w3.org/Graphics/SVG/1.1/DTD/svg11.dtd">
<!-- Creator: CorelDRAW -->
<svg xmlns="http://www.w3.org/2000/svg" xml:space="preserve" width="198.725mm" height="197.857mm" version="1.1" style="shape-rendering:geometricPrecision; text-rendering:geometricPrecision; image-rendering:optimizeQuality; fill-rule:evenodd; clip-rule:evenodd"
viewBox="0 0 19874.7 19787.95"
 xmlns:xlink="http://www.w3.org/1999/xlink"
 xmlns:xodm="http://www.corel.com/coreldraw/odm/2003">
 <defs>
  <style type="text/css">
   <![CDATA[
    .str0 {stroke:#2B2A29;stroke-width:20;stroke-miterlimit:22.9256}
    .fil0 {fill:#FFCA16}
    .fil1 {fill:#46A758;fill-rule:nonzero}
   ]]>
  </style>
 </defs>
 <g id="Слой_x0020_1">
  <metadata id="CorelCorpID_0Corel-Layer"/>
  <ellipse class="fil0 str0" cx="10035.4" cy="9635.21" rx="9453.01" ry="8896.95"/>
  <path class="fil1" d="M9001.82 22.61c-1295.12,128.32 -2374,434.88 -3505.15,1000.45 -1463.85,734.3 -2766.11,1863.09 -3754.69,3258.01 -988.57,1394.95 -1542.27,2903.93 -1713.37,4662.46 -47.53,489.53 -33.26,1644.45 23.76,2067.46 92.68,682.02 251.9,1409.19 432.51,1948.63 591.73,1784.66 1699.11,3393.48 3172.46,4603.04 1589.8,1304.64 3495.66,2055.57 5605.89,2207.67 482.4,35.64 1482.86,14.26 1901.1,-38.02 2131.62,-270.91 4011.33,-1173.93 5653.41,-2716.2 518.05,-487.15 995.7,-1057.49 1416.32,-1691.98 893.52,-1347.41 1413.95,-2770.86 1608.82,-4408.19 47.53,-403.99 40.39,-1670.6 -11.88,-2091.21 -99.81,-786.58 -223.38,-1352.16 -442.01,-2005.66 -477.65,-1428.2 -1209.59,-2630.65 -2276.57,-3733.29 -1000.45,-1036.11 -2074.58,-1775.16 -3348.32,-2312.23 -301.8,-128.32 -1017.09,-370.71 -1364.04,-465.76 -484.78,-130.7 -1171.55,-240.02 -1782.28,-287.54 -373.09,-28.51 -1323.64,-26.14 -1615.94,2.38l-0.01 -0.01zm6939.04 4104.02c0,102.18 -106.93,691.52 -201.99,1097.88 -163.97,722.42 -349.33,1266.61 -605.98,1794.17 -567.95,1169.18 -1497.12,2029.43 -2697.19,2492.82 -712.91,275.66 -1984.27,537.07 -1984.27,408.75 0,-42.78 349.33,-598.86 558.45,-886.4 534.68,-736.67 1399.69,-1689.6 1984.27,-2183.89 104.56,-87.92 185.36,-163.97 180.6,-168.72 -14.25,-14.26 -456.26,244.77 -663,387.35 -323.19,223.37 -632.12,480.02 -929.16,769.95 -853.13,829.35 -1321.27,1644.45 -1630.2,2835.03 -173.48,670.13 -251.9,1278.48 -275.66,2107.85 -35.64,1266.61 133.08,2528.47 432.51,3205.74 57.04,125.94 73.67,273.28 38.01,327.94 -28.51,45.16 -218.62,121.2 -349.32,137.84 -173.48,23.76 -313.69,-21.39 -420.63,-130.7 -244.77,-259.03 -318.44,-907.78 -297.04,-2599.76 9.5,-800.84 23.76,-1140.67 64.16,-1558.9 49.91,-508.55 49.91,-541.82 11.88,-748.56 -102.18,-570.33 -339.82,-1093.13 -627.36,-1392.56 -95.05,-97.44 -125.94,-116.44 -199.61,-116.44 -266.15,0 -933.91,-140.22 -1368.79,-285.17 -1627.82,-544.19 -2690.06,-1637.32 -3258.01,-3355.44 -95.06,-287.54 -308.93,-1114.52 -308.93,-1195.31 0,-38.02 35.65,-40.4 529.93,-28.51 1779.92,42.77 3239.01,558.44 4149.16,1466.22 703.41,705.79 1071.75,1561.28 1166.8,2725.7 38.02,442.01 19.01,461.02 -178.22,156.84 -361.21,-553.69 -955.31,-1188.18 -1478.12,-1580.29 -297.04,-223.37 -696.28,-446.76 -976.69,-548.95 -308.93,-111.69 -456.27,-159.21 -456.27,-147.33 0,7.12 66.55,45.15 149.72,85.55 496.67,251.89 1200.07,881.64 1884.47,1687.23 665.38,784.21 1040.86,1278.48 1197.69,1580.29 40.4,73.67 76.05,118.82 80.8,99.81 40.39,-137.83 187.73,-541.81 299.42,-826.98 121.19,-308.92 137.83,-368.34 152.09,-582.22 71.29,-1012.33 346.96,-1851.2 836.49,-2542.72 213.87,-304.18 727.17,-829.35 1026.59,-1055.12 800.84,-603.6 1912.98,-1071.74 3153.45,-1330.77 294.67,-61.79 860.26,-159.22 981.45,-166.35 16.63,-2.38 28.51,26.14 28.51,64.17l-0.01 0z"/>
 </g>
</svg>
