<?xml version="1.0" encoding="UTF-8"?>
<!DOCTYPE svg PUBLIC "-//W3C//DTD SVG 1.1//EN" "http://www.w3.org/Graphics/SVG/1.1/DTD/svg11.dtd">
<!-- Creator: CorelDRAW -->
<svg xmlns="http://www.w3.org/2000/svg" xml:space="preserve" width="210mm" height="297mm" version="1.1" style="shape-rendering:geometricPrecision; text-rendering:geometricPrecision; image-rendering:optimizeQuality; fill-rule:evenodd; clip-rule:evenodd"
viewBox="0 0 21000 29700"
 xmlns:xlink="http://www.w3.org/1999/xlink"
 xmlns:xodm="http://www.corel.com/coreldraw/odm/2003">
 <defs>
  <style type="text/css">
   <![CDATA[
    .str0 {stroke:#2B2A29;stroke-width:20;stroke-miterlimit:22.9256}
    .fil0 {fill:#FFCA16}
    .fil1 {fill:#46A758;fill-rule:nonzero}
   ]]>
  </style>
 </defs>
 <g id="Слой_x0020_1">
  <metadata id="CorelCorpID_0Corel-Layer"/>
  <ellipse class="fil0 str0" cx="43332.66" cy="8537.62" rx="14033.15" ry="13207.67"/>
  <path class="fil1" d="M41798.29 -5732.44c-1922.64,190.5 -3524.25,645.58 -5203.47,1485.19 -2173.11,1090.08 -4106.33,2765.78 -5573.89,4836.58 -1467.56,2070.81 -2289.53,4310.94 -2543.53,6921.5 -70.56,726.72 -49.39,2441.22 35.28,3069.17 137.58,1012.47 373.94,2091.97 642.06,2892.78 878.42,2649.36 2522.36,5037.67 4709.58,6833.3 2360.08,1936.75 5189.36,3051.53 8322.03,3277.31 716.14,52.92 2201.33,21.17 2822.22,-56.44 3164.42,-402.17 5954.89,-1742.72 8392.58,-4032.25 769.06,-723.19 1478.14,-1569.86 2102.56,-2511.78 1326.44,-2000.25 2099.03,-4113.39 2388.31,-6544.03 70.56,-599.72 59.97,-2480.03 -17.64,-3104.44 -148.17,-1167.69 -331.61,-2007.31 -656.17,-2977.44 -709.08,-2120.19 -1795.64,-3905.25 -3379.61,-5542.14 -1485.19,-1538.11 -3079.75,-2635.25 -4970.64,-3432.53 -448.03,-190.5 -1509.89,-550.33 -2024.94,-691.44 -719.67,-194.03 -1739.19,-356.31 -2645.83,-426.86 -553.86,-42.33 -1964.97,-38.81 -2398.89,3.53l-0.01 -0.01zm10301.11 6092.48c0,151.69 -158.75,1026.58 -299.86,1629.83 -243.42,1072.44 -518.58,1880.31 -899.58,2663.47 -843.14,1735.67 -2222.5,3012.72 -4004.03,3700.64 -1058.33,409.22 -2945.69,797.28 -2945.69,606.78 0,-63.5 518.58,-889 829.03,-1315.86 793.75,-1093.61 2077.86,-2508.25 2945.69,-3242.03 155.22,-130.53 275.17,-243.42 268.11,-250.47 -21.17,-21.17 -677.33,363.36 -984.25,575.03 -479.78,331.61 -938.39,712.61 -1379.36,1143 -1266.47,1231.19 -1961.44,2441.22 -2420.06,4208.64 -257.53,994.83 -373.94,1897.94 -409.22,3129.14 -52.92,1880.31 197.56,3753.56 642.06,4758.97 84.67,186.97 109.36,405.69 56.44,486.83 -42.33,67.03 -324.56,179.92 -518.58,204.61 -257.53,35.28 -465.67,-31.75 -624.42,-194.03 -363.36,-384.53 -472.72,-1347.61 -440.97,-3859.39 14.11,-1188.86 35.28,-1693.33 95.25,-2314.22 74.08,-754.94 74.08,-804.33 17.64,-1111.25 -151.69,-846.67 -504.47,-1622.78 -931.33,-2067.28 -141.11,-144.64 -186.97,-172.86 -296.33,-172.86 -395.11,0 -1386.42,-208.14 -2032,-423.33 -2416.53,-807.86 -3993.44,-2430.64 -4836.58,-4981.22 -141.11,-426.86 -458.61,-1654.53 -458.61,-1774.47 0,-56.44 52.92,-59.97 786.69,-42.33 2642.31,63.5 4808.36,829.03 6159.5,2176.64 1044.22,1047.75 1591.03,2317.75 1732.14,4046.36 56.44,656.17 28.22,684.39 -264.58,232.83 -536.22,-821.97 -1418.17,-1763.89 -2194.28,-2345.97 -440.97,-331.61 -1033.64,-663.22 -1449.92,-814.92 -458.61,-165.81 -677.33,-236.36 -677.33,-218.72 0,10.58 98.78,67.03 222.25,127 737.31,373.94 1781.53,1308.81 2797.53,2504.72 987.78,1164.17 1545.17,1897.94 1778,2345.97 59.97,109.36 112.89,176.39 119.94,148.17 59.97,-204.61 278.69,-804.33 444.5,-1227.67 179.92,-458.61 204.61,-546.81 225.78,-864.31 105.83,-1502.83 515.06,-2748.14 1241.78,-3774.72 317.5,-451.56 1079.5,-1231.19 1524,-1566.33 1188.86,-896.06 2839.86,-1591.03 4681.36,-1975.56 437.44,-91.72 1277.06,-236.36 1456.97,-246.94 24.69,-3.53 42.33,38.81 42.33,95.25l-0.01 0z"/>
 </g>
</svg>
