<?xml version="1.0" encoding="UTF-8"?>
<svg xmlns="http://www.w3.org/2000/svg" width="1024" height="1024" viewBox="0 0 1024 1024">
  <!-- Background circle -->
  <circle cx="512" cy="512" r="475" fill="#2a7d3d" stroke="#1f5f2e" stroke-width="2"/>
  <!-- Sprout -->
  <path d="M 502.0 787.5 L 493.0 785.5 L 486.5 780.0 L 478.5 756.0 L 475.5 650.0 L 480.5 579.0 L 466.5 535.0 L 449.0 512.5 L 406.0 505.5 L 365.0 491.5 L 337.0 476.5 L 307.0 453.5 L 281.5 424.0 L 260.5 387.0 L 248.5 356.0 L 236.5 307.0 L 292.0 308.5 L 343.0 318.5 L 397.0 340.5 L 424.0 359.5 L 447.5 384.0 L 467.5 418.0 L 478.5 452.0 L 483.0 497.5 L 479.5 497.0 L 445.5 452.0 L 418.0 426.5 L 375.0 400.5 L 351.5 394.0 L 383.0 413.5 L 426.5 455.0 L 467.5 504.0 L 492.0 540.5 L 510.5 491.0 L 514.5 449.0 L 524.5 413.0 L 538.5 384.0 L 558.5 357.0 L 596.0 323.5 L 645.0 296.5 L 696.0 278.5 L 764.0 266.5 L 755.5 318.0 L 736.5 378.0 L 713.5 420.0 L 681.0 456.5 L 651.0 478.5 L 616.0 495.5 L 572.0 508.5 L 533.5 513.0 L 554.5 478.0 L 583.5 441.0 L 649.0 374.5 L 620.0 391.5 L 583.0 421.5 L 557.5 449.0 L 537.5 478.0 L 515.5 530.0 L 503.5 586.0 L 500.5 619.0 L 502.5 697.0 L 508.5 736.0 L 521.5 780.0 L 516.0 784.5 L 502.0 787.5 Z" fill="#ffffff" fill-rule="evenodd"/>
</svg>
