<svg xmlns="http://www.w3.org/2000/svg" viewBox="0 0 640 420" role="img" aria-labelledby="title desc">
  <title id="title">Zigbee soil sensor</title>
  <desc id="desc">Neutral illustration of a combined soil moisture and climate sensor</desc>
  <rect width="640" height="420" rx="28" fill="#eef8f1"/>
  <path d="M0 300c122-35 224 33 338 2 119-32 210-3 302 25v93H0z" fill="#9a704e"/>
  <path d="M0 333c112-24 213 24 326 4 132-23 222 2 314 32v51H0z" fill="#765239"/>
  <rect x="252" y="65" width="136" height="160" rx="30" fill="#fff" stroke="#cbd9d0" stroke-width="5"/>
  <rect x="276" y="90" width="88" height="64" rx="10" fill="#e4eee7"/>
  <text x="289" y="132" fill="#375342" font-family="Arial, sans-serif" font-size="30" font-weight="700">48%</text>
  <circle cx="320" cy="188" r="10" fill="#5db67b"/>
  <path d="M288 222l-18 147M352 222l18 147" stroke="#505b54" stroke-width="18" stroke-linecap="round"/>
  <path d="M318 292c-46-62-104-75-137-60 15 52 58 82 122 80M335 280c38-47 86-58 115-43-14 42-49 65-101 65" fill="#63a873"/>
  <path d="M493 86c20-20 52-20 72 0M505 100c13-13 35-13 48 0M521 117c5-5 13-5 18 0" fill="none" stroke="#2e7d4f" stroke-width="8" stroke-linecap="round"/>
</svg>
